<?xml version="1.0" encoding="UTF-8" standalone="no"?>
<!DOCTYPE svg PUBLIC "-//W3C//DTD SVG 1.1//EN" "http://www.w3.org/Graphics/SVG/1.1/DTD/svg11.dtd">
<svg width="100%" height="100%" viewBox="0 0 771 332" version="1.1" xmlns="http://www.w3.org/2000/svg" xmlns:xlink="http://www.w3.org/1999/xlink" xml:space="preserve" xmlns:serif="http://www.serif.com/" style="fill-rule:evenodd;clip-rule:evenodd;stroke-linejoin:round;stroke-miterlimit:2;">
    <g transform="matrix(24.4855,0,0,24.4855,-4670.86,-4703.31)">
        <path d="M196.25,202.045C195.842,202.045 195.53,201.913 195.314,201.649C195.098,201.385 194.99,201.037 194.99,200.605L194.99,196.945L193.85,196.945L193.85,196.045L194.99,196.045L194.99,194.605L196.01,194.605L196.01,196.045L197.762,196.045L197.762,196.945L196.01,196.945L196.01,200.665C196.01,200.841 196.054,200.965 196.142,201.037C196.23,201.109 196.366,201.145 196.55,201.145L197.762,201.145L197.762,202.045L196.25,202.045Z" style="fill-rule:nonzero;"/>
        <path d="M201.65,193.645L201.65,194.725L200.51,194.725L200.51,193.645L201.65,193.645ZM198.806,196.945L198.806,196.045L201.59,196.045L201.59,201.145L203.366,201.145L203.366,202.045L200.57,202.045L200.57,196.945L198.806,196.945Z" style="fill-rule:nonzero;"/>
        <path d="M205.13,196.045L205.13,196.333C205.378,196.141 205.698,196.045 206.09,196.045L206.522,196.045C207.226,196.045 207.742,196.195 208.07,196.495C208.398,196.795 208.562,197.285 208.562,197.965L208.562,200.125C208.562,200.797 208.396,201.285 208.064,201.589C207.732,201.893 207.218,202.045 206.522,202.045L205.19,202.045L205.19,204.085L204.17,204.085L204.17,196.045L205.13,196.045ZM205.97,196.945C205.706,196.945 205.51,197.015 205.382,197.155C205.254,197.295 205.19,197.445 205.19,197.605L205.19,201.145L206.642,201.145C206.938,201.145 207.162,201.077 207.314,200.941C207.466,200.805 207.542,200.613 207.542,200.365L207.542,197.725C207.542,197.477 207.466,197.285 207.314,197.149C207.162,197.013 206.938,196.945 206.642,196.945L205.97,196.945Z" style="fill:rgb(153,102,204);fill-rule:nonzero;"/>
        <path d="M210.41,196.045L210.41,196.333C210.658,196.141 210.978,196.045 211.37,196.045L211.802,196.045C212.506,196.045 213.022,196.195 213.35,196.495C213.678,196.795 213.842,197.285 213.842,197.965L213.842,200.125C213.842,200.797 213.676,201.285 213.344,201.589C213.012,201.893 212.498,202.045 211.802,202.045L210.47,202.045L210.47,204.085L209.45,204.085L209.45,196.045L210.41,196.045ZM211.25,196.945C210.986,196.945 210.79,197.015 210.662,197.155C210.534,197.295 210.47,197.445 210.47,197.605L210.47,201.145L211.922,201.145C212.218,201.145 212.442,201.077 212.594,200.941C212.746,200.805 212.822,200.613 212.822,200.365L212.822,197.725C212.822,197.477 212.746,197.285 212.594,197.149C212.442,197.013 212.218,196.945 211.922,196.945L211.25,196.945Z" style="fill:rgb(153,102,204);fill-rule:nonzero;"/>
        <path d="M219.158,200.125C219.158,200.797 218.992,201.285 218.66,201.589C218.328,201.893 217.814,202.045 217.118,202.045L216.722,202.045C216.026,202.045 215.512,201.893 215.18,201.589C214.848,201.285 214.682,200.797 214.682,200.125L214.682,197.965C214.682,197.293 214.848,196.805 215.18,196.501C215.512,196.197 216.026,196.045 216.722,196.045L217.118,196.045C217.814,196.045 218.328,196.197 218.66,196.501C218.992,196.805 219.158,197.293 219.158,197.965L219.158,200.125ZM218.138,197.725C218.138,197.477 218.062,197.285 217.91,197.149C217.758,197.013 217.534,196.945 217.238,196.945L216.602,196.945C216.306,196.945 216.082,197.013 215.93,197.149C215.778,197.285 215.702,197.477 215.702,197.725L215.702,200.365C215.702,200.613 215.778,200.805 215.93,200.941C216.082,201.077 216.306,201.145 216.602,201.145L217.238,201.145C217.534,201.145 217.758,201.077 217.91,200.941C218.062,200.805 218.138,200.613 218.138,200.365L218.138,197.725Z" style="fill-rule:nonzero;"/>
    </g>
    <g transform="matrix(0.752244,0,0,1.00075,0.350998,-34.0255)">
        <path d="M1024,100.474C1024,63.854 984.448,34.124 935.731,34.124L88.269,34.124C39.552,34.124 0,63.854 0,100.474L0,365.876L935.731,365.876C984.448,365.876 1024,336.146 1024,299.526L1024,100.474ZM1000.07,100.474L1000.07,299.526C1000.07,326.218 971.241,347.89 935.731,347.89L23.928,347.89C23.928,288.206 23.928,100.474 23.928,100.474C23.928,73.782 52.759,52.11 88.269,52.11L935.731,52.11C971.241,52.11 1000.07,73.782 1000.07,100.474Z" style="fill:rgb(153,102,204);"/>
    </g>
</svg>
